<svg width="12" height="16" viewBox="0 0 12 16" fill="none" xmlns="http://www.w3.org/2000/svg">
<path id="Player" fill-rule="evenodd" clip-rule="evenodd" d="M10.2889 14.7261V12.2934H9.44936V15.0658C7.27876 15.8463 4.90409 15.8463 2.73349 15.0658V12.2934H1.89391V14.7261C1.30406 14.4551 0.741846 14.1277 0.215149 13.7483V12.2934C0.219767 10.1601 1.57209 8.26259 3.58715 7.56209C4.23965 8.25272 5.14154 8.65329 6.09142 8.67437C7.0413 8.65325 7.94317 8.25268 8.5957 7.56209C10.6111 8.2625 11.9636 10.1602 11.9681 12.2938V13.7483C11.4413 14.1277 10.8789 14.4551 10.2889 14.7261ZM8.97722 3.67781C8.97722 5.6694 7.68536 7.28402 6.09142 7.28402C4.49749 7.28402 3.20563 5.66899 3.20563 3.67823C3.20563 1.68747 4.49791 0.0720215 6.09142 0.0720215C7.68494 0.0720215 8.97722 1.68664 8.97722 3.67823V3.67781Z" fill="#B2B2B2"/>
</svg>
